<svg id="Layer_1" data-name="Layer 1" xmlns="http://www.w3.org/2000/svg" viewBox="0 0 150 135"><defs><style>.cls-1{fill:#fff;}.cls-2{fill:#e52421;}</style></defs><rect class="cls-1" x="30" y="45" width="15" height="15"/><rect x="45" y="105" width="15" height="15"/><rect x="30" y="90" width="15" height="15"/><polygon points="60 15 60 0 45 0 30 0 30 15 45 15 60 15"/><polygon points="60 120 60 135 75 135 90 135 90 120 75 120 60 120"/><polygon points="75 30 90 30 90 15 75 15 60 15 60 30 75 30"/><rect x="90" y="105" width="15" height="15"/><polygon points="120 15 120 0 105 0 90 0 90 15 105 15 120 15"/><rect x="105" y="90" width="15" height="15"/><rect x="120" y="15" width="15" height="15"/><polygon class="cls-2" points="135 45 135 30 120 30 120 15 105 15 90 15 90 30 75 30 60 30 60 45 45 45 45 60 30 60 30 45 45 45 45 30 60 30 60 15 45 15 30 15 30 30 15 30 15 45 15 60 15 75 30 75 30 90 45 90 45 105 60 105 60 120 75 120 90 120 90 105 105 105 105 90 120 90 120 75 135 75 135 60 135 45"/><rect x="120" y="75" width="15" height="15"/><rect x="15" y="15" width="15" height="15"/><rect x="15" y="75" width="15" height="15"/><polygon points="15 45 15 30 0 30 0 45 0 60 0 75 15 75 15 60 15 45"/><rect class="cls-1" x="45" y="30" width="15" height="15"/><polygon points="135 30 135 45 135 60 135 75 150 75 150 60 150 45 150 30 135 30"/></svg>